<svg xmlns="http://www.w3.org/2000/svg" width="1200" height="675" viewBox="0 0 1200 675" role="img" aria-labelledby="title description">
  <title id="title">HireSpark video interview dashboard</title>
  <desc id="description">A stylized hiring dashboard with candidate cards and an active video interview.</desc>
  <defs>
    <linearGradient id="background" x1="0" y1="0" x2="1" y2="1">
      <stop offset="0" stop-color="#0f172a"/>
      <stop offset="1" stop-color="#312e81"/>
    </linearGradient>
    <linearGradient id="accent" x1="0" y1="0" x2="1" y2="0">
      <stop offset="0" stop-color="#ec4899"/>
      <stop offset="1" stop-color="#8b5cf6"/>
    </linearGradient>
  </defs>
  <rect width="1200" height="675" rx="36" fill="url(#background)"/>
  <circle cx="1100" cy="80" r="180" fill="#8b5cf6" opacity=".14"/>
  <circle cx="80" cy="630" r="210" fill="#ec4899" opacity=".1"/>
  <text x="70" y="94" fill="#fff" font-family="Arial, sans-serif" font-size="38" font-weight="700">HireSpark</text>
  <text x="70" y="130" fill="#cbd5e1" font-family="Arial, sans-serif" font-size="18">Instant interviews. Better matches.</text>
  <rect x="70" y="175" width="700" height="430" rx="24" fill="#fff" opacity=".98"/>
  <rect x="100" y="205" width="640" height="52" rx="14" fill="#f1f5f9"/>
  <circle cx="132" cy="231" r="15" fill="#ec4899"/>
  <rect x="162" y="220" width="180" height="13" rx="6" fill="#334155"/>
  <rect x="162" y="240" width="115" height="8" rx="4" fill="#94a3b8"/>
  <rect x="100" y="282" width="305" height="135" rx="18" fill="#f8fafc" stroke="#e2e8f0"/>
  <circle cx="145" cy="327" r="25" fill="#ddd6fe"/>
  <rect x="184" y="308" width="140" height="13" rx="6" fill="#334155"/>
  <rect x="184" y="333" width="95" height="9" rx="4" fill="#94a3b8"/>
  <rect x="126" y="375" width="112" height="24" rx="12" fill="#dcfce7"/>
  <rect x="435" y="282" width="305" height="135" rx="18" fill="#f8fafc" stroke="#e2e8f0"/>
  <circle cx="480" cy="327" r="25" fill="#fbcfe8"/>
  <rect x="519" y="308" width="140" height="13" rx="6" fill="#334155"/>
  <rect x="519" y="333" width="95" height="9" rx="4" fill="#94a3b8"/>
  <rect x="461" y="375" width="112" height="24" rx="12" fill="#fce7f3"/>
  <rect x="100" y="448" width="640" height="125" rx="18" fill="#0f172a"/>
  <rect x="120" y="468" width="170" height="85" rx="12" fill="#334155"/>
  <circle cx="205" cy="503" r="24" fill="#64748b"/>
  <rect x="312" y="476" width="220" height="15" rx="7" fill="#e2e8f0"/>
  <rect x="312" y="504" width="160" height="10" rx="5" fill="#64748b"/>
  <rect x="312" y="532" width="110" height="22" rx="11" fill="url(#accent)"/>
  <rect x="820" y="225" width="310" height="330" rx="28" fill="#020617" stroke="#475569" stroke-width="4"/>
  <rect x="842" y="250" width="266" height="214" rx="18" fill="#1e293b"/>
  <circle cx="975" cy="340" r="58" fill="#475569"/>
  <rect x="1018" y="386" width="70" height="55" rx="12" fill="#64748b" stroke="#94a3b8"/>
  <circle cx="930" cy="505" r="21" fill="#334155"/>
  <circle cx="975" cy="505" r="21" fill="#ef4444"/>
  <circle cx="1020" cy="505" r="21" fill="#334155"/>
</svg>
